<?xml version="1.0" encoding="UTF-8" standalone="no"?>
<!-- Created with Inkscape (http://www.inkscape.org/) -->

<svg
   xmlns:dc="http://purl.org/dc/elements/1.1/"
   xmlns:cc="http://creativecommons.org/ns#"
   xmlns:rdf="http://www.w3.org/1999/02/22-rdf-syntax-ns#"
   xmlns:svg="http://www.w3.org/2000/svg"
   xmlns="http://www.w3.org/2000/svg"
   xmlns:sodipodi="http://sodipodi.sourceforge.net/DTD/sodipodi-0.dtd"
   xmlns:inkscape="http://www.inkscape.org/namespaces/inkscape"
   width="141.11111mm"
   height="148.06895mm"
   viewBox="0 0 500.00002 524.65378"
   id="svg3684"
   version="1.1"
   inkscape:version="0.91 r13725"
   sodipodi:docname="width-reduction.svg">
  <defs
     id="defs3686" />
  <sodipodi:namedview
     id="base"
     pagecolor="#ffffff"
     bordercolor="#666666"
     borderopacity="1.0"
     inkscape:pageopacity="0.0"
     inkscape:pageshadow="2"
     inkscape:zoom="0.35"
     inkscape:cx="102.45801"
     inkscape:cy="107.51004"
     inkscape:document-units="px"
     inkscape:current-layer="layer1"
     showgrid="false"
     fit-margin-top="0"
     fit-margin-left="0"
     fit-margin-right="0"
     fit-margin-bottom="0"
     inkscape:window-width="1366"
     inkscape:window-height="703"
     inkscape:window-x="0"
     inkscape:window-y="20"
     inkscape:window-maximized="1" />
  <metadata
     id="metadata3689">
    <rdf:RDF>
      <cc:Work
         rdf:about="">
        <dc:format>image/svg+xml</dc:format>
        <dc:type
           rdf:resource="http://purl.org/dc/dcmitype/StillImage" />
        <dc:title></dc:title>
      </cc:Work>
    </rdf:RDF>
  </metadata>
  <g
     inkscape:label="レイヤー 1"
     inkscape:groupmode="layer"
     id="layer1"
     transform="translate(-272.54199,-115.21846)">
    <g
       transform="matrix(5.521501,0,0,5.521501,-3286.2999,-1598.8067)"
       style="display:inline"
       id="g8795">
      <g
         id="g24009"
         transform="matrix(0.86660224,0,0,0.86660224,639.91828,306.40687)">
        <path
           inkscape:connector-curvature="0"
           id="path24011"
           style="fill:none;stroke:#000000;stroke-width:0.5;stroke-linecap:butt;stroke-linejoin:miter;stroke-miterlimit:3.79999995;stroke-dasharray:none;stroke-opacity:1"
           d="m 17.75,94.301 2.898,0" />
      </g>
      <g
         id="g24013"
         transform="matrix(0.86660224,0,0,0.86660224,639.91828,306.40687)">
        <path
           inkscape:connector-curvature="0"
           id="path24015"
           style="fill:none;stroke:#000000;stroke-width:0.5;stroke-linecap:butt;stroke-linejoin:miter;stroke-miterlimit:3.79999995;stroke-dasharray:none;stroke-opacity:1"
           d="m 100,94.301 -2.898,0" />
      </g>
      <g
         id="g24025"
         transform="matrix(0.86660224,0,0,0.86660224,639.91828,306.40687)">
        <path
           inkscape:connector-curvature="0"
           id="path24027"
           style="fill:none;stroke:#000000;stroke-width:0.5;stroke-linecap:butt;stroke-linejoin:miter;stroke-miterlimit:3.79999995;stroke-dasharray:none;stroke-opacity:1"
           d="m 17.75,82.551 2.898,0" />
      </g>
      <g
         id="g24029"
         transform="matrix(0.86660224,0,0,0.86660224,639.91828,306.40687)">
        <path
           inkscape:connector-curvature="0"
           id="path24031"
           style="fill:none;stroke:#000000;stroke-width:0.5;stroke-linecap:butt;stroke-linejoin:miter;stroke-miterlimit:3.79999995;stroke-dasharray:none;stroke-opacity:1"
           d="m 100,82.551 -2.898,0" />
      </g>
      <text
         y="380.11407"
         x="644.03467"
         id="text24033"
         style="font-variant:normal;font-weight:normal;font-size:5.77763033px;font-family:'Liberation Serif';-inkscape-font-specification:LiberationSerif;writing-mode:lr-tb;fill:#000000;fill-opacity:1;fill-rule:nonzero;stroke:none">
        <tspan
           id="tspan24035"
           sodipodi:role="line"
           y="380.11407"
           x="644.03467 647.06787">10</tspan>
      </text>
      <text
         y="377.94754"
         x="650.10083"
         id="text24037"
         style="font-variant:normal;font-weight:normal;font-size:4.62159634px;font-family:'Liberation Serif';-inkscape-font-specification:LiberationSerif;writing-mode:lr-tb;fill:#000000;fill-opacity:1;fill-rule:nonzero;stroke:none">
        <tspan
           id="tspan24039"
           y="377.94754"
           x="650.10083">1</tspan>
      </text>
      <g
         id="g24041"
         transform="matrix(0.86660224,0,0,0.86660224,639.91828,306.40687)">
        <path
           inkscape:connector-curvature="0"
           id="path24043"
           style="fill:none;stroke:#000000;stroke-width:0.5;stroke-linecap:butt;stroke-linejoin:miter;stroke-miterlimit:3.79999995;stroke-dasharray:none;stroke-opacity:1"
           d="m 17.75,70.801 2.898,0" />
      </g>
      <g
         id="g24045"
         transform="matrix(0.86660224,0,0,0.86660224,639.91828,306.40687)">
        <path
           inkscape:connector-curvature="0"
           id="path24047"
           style="fill:none;stroke:#000000;stroke-width:0.5;stroke-linecap:butt;stroke-linejoin:miter;stroke-miterlimit:3.79999995;stroke-dasharray:none;stroke-opacity:1"
           d="m 100,70.801 -2.898,0" />
      </g>
      <text
         y="369.93149"
         x="644.03467"
         id="text24049"
         style="font-variant:normal;font-weight:normal;font-size:5.77763033px;font-family:'Liberation Serif';-inkscape-font-specification:LiberationSerif;writing-mode:lr-tb;fill:#000000;fill-opacity:1;fill-rule:nonzero;stroke:none">
        <tspan
           id="tspan24051"
           sodipodi:role="line"
           y="369.93149"
           x="644.03467 647.06787">10</tspan>
      </text>
      <text
         y="367.76498"
         x="650.10083"
         id="text24053"
         style="font-variant:normal;font-weight:normal;font-size:4.62159634px;font-family:'Liberation Serif';-inkscape-font-specification:LiberationSerif;writing-mode:lr-tb;fill:#000000;fill-opacity:1;fill-rule:nonzero;stroke:none">
        <tspan
           id="tspan24055"
           y="367.76498"
           x="650.10083">2</tspan>
      </text>
      <g
         id="g24057"
         transform="matrix(0.86660224,0,0,0.86660224,639.91828,306.40687)">
        <path
           inkscape:connector-curvature="0"
           id="path24059"
           style="fill:none;stroke:#000000;stroke-width:0.5;stroke-linecap:butt;stroke-linejoin:miter;stroke-miterlimit:3.79999995;stroke-dasharray:none;stroke-opacity:1"
           d="m 17.75,59.051 2.898,0" />
      </g>
      <g
         id="g24061"
         transform="matrix(0.86660224,0,0,0.86660224,639.91828,306.40687)">
        <path
           inkscape:connector-curvature="0"
           id="path24063"
           style="fill:none;stroke:#000000;stroke-width:0.5;stroke-linecap:butt;stroke-linejoin:miter;stroke-miterlimit:3.79999995;stroke-dasharray:none;stroke-opacity:1"
           d="m 100,59.051 -2.898,0" />
      </g>
      <text
         y="359.7489"
         x="644.03467"
         id="text24065"
         style="font-variant:normal;font-weight:normal;font-size:5.77763033px;font-family:'Liberation Serif';-inkscape-font-specification:LiberationSerif;writing-mode:lr-tb;fill:#000000;fill-opacity:1;fill-rule:nonzero;stroke:none">
        <tspan
           id="tspan24067"
           sodipodi:role="line"
           y="359.7489"
           x="644.03467 647.06787">10</tspan>
      </text>
      <text
         y="357.5824"
         x="650.10083"
         id="text24069"
         style="font-variant:normal;font-weight:normal;font-size:4.62159634px;font-family:'Liberation Serif';-inkscape-font-specification:LiberationSerif;writing-mode:lr-tb;fill:#000000;fill-opacity:1;fill-rule:nonzero;stroke:none">
        <tspan
           id="tspan24071"
           y="357.5824"
           x="650.10083">3</tspan>
      </text>
      <g
         id="g24073"
         transform="matrix(0.86660224,0,0,0.86660224,639.91828,306.40687)">
        <path
           inkscape:connector-curvature="0"
           id="path24075"
           style="fill:none;stroke:#000000;stroke-width:0.5;stroke-linecap:butt;stroke-linejoin:miter;stroke-miterlimit:3.79999995;stroke-dasharray:none;stroke-opacity:1"
           d="m 17.75,47.301 2.898,0" />
      </g>
      <g
         id="g24077"
         transform="matrix(0.86660224,0,0,0.86660224,639.91828,306.40687)">
        <path
           inkscape:connector-curvature="0"
           id="path24079"
           style="fill:none;stroke:#000000;stroke-width:0.5;stroke-linecap:butt;stroke-linejoin:miter;stroke-miterlimit:3.79999995;stroke-dasharray:none;stroke-opacity:1"
           d="m 100,47.301 -2.898,0" />
      </g>
      <text
         y="349.56635"
         x="644.03467"
         id="text24081"
         style="font-variant:normal;font-weight:normal;font-size:5.77763033px;font-family:'Liberation Serif';-inkscape-font-specification:LiberationSerif;writing-mode:lr-tb;fill:#000000;fill-opacity:1;fill-rule:nonzero;stroke:none">
        <tspan
           id="tspan24083"
           sodipodi:role="line"
           y="349.56635"
           x="644.03467 647.06787">10</tspan>
      </text>
      <text
         y="347.39981"
         x="650.10083"
         id="text24085"
         style="font-variant:normal;font-weight:normal;font-size:4.62159634px;font-family:'Liberation Serif';-inkscape-font-specification:LiberationSerif;writing-mode:lr-tb;fill:#000000;fill-opacity:1;fill-rule:nonzero;stroke:none">
        <tspan
           id="tspan24087"
           y="347.39981"
           x="650.10083">4</tspan>
      </text>
      <g
         id="g24089"
         transform="matrix(0.86660224,0,0,0.86660224,639.91828,306.40687)">
        <path
           inkscape:connector-curvature="0"
           id="path24091"
           style="fill:none;stroke:#000000;stroke-width:0.5;stroke-linecap:butt;stroke-linejoin:miter;stroke-miterlimit:3.79999995;stroke-dasharray:none;stroke-opacity:1"
           d="m 17.75,35.551 2.898,0" />
      </g>
      <g
         id="g24093"
         transform="matrix(0.86660224,0,0,0.86660224,639.91828,306.40687)">
        <path
           inkscape:connector-curvature="0"
           id="path24095"
           style="fill:none;stroke:#000000;stroke-width:0.5;stroke-linecap:butt;stroke-linejoin:miter;stroke-miterlimit:3.79999995;stroke-dasharray:none;stroke-opacity:1"
           d="m 100,35.551 -2.898,0" />
      </g>
      <text
         y="339.38376"
         x="644.03467"
         id="text24097"
         style="font-variant:normal;font-weight:normal;font-size:5.77763033px;font-family:'Liberation Serif';-inkscape-font-specification:LiberationSerif;writing-mode:lr-tb;fill:#000000;fill-opacity:1;fill-rule:nonzero;stroke:none">
        <tspan
           id="tspan24099"
           sodipodi:role="line"
           y="339.38376"
           x="644.03467 647.06787">10</tspan>
      </text>
      <text
         y="337.21725"
         x="650.10083"
         id="text24101"
         style="font-variant:normal;font-weight:normal;font-size:4.62159634px;font-family:'Liberation Serif';-inkscape-font-specification:LiberationSerif;writing-mode:lr-tb;fill:#000000;fill-opacity:1;fill-rule:nonzero;stroke:none">
        <tspan
           id="tspan24103"
           y="337.21725"
           x="650.10083">5</tspan>
      </text>
      <g
         id="g24105"
         transform="matrix(0.86660224,0,0,0.86660224,639.91828,306.40687)">
        <path
           inkscape:connector-curvature="0"
           id="path24107"
           style="fill:none;stroke:#000000;stroke-width:0.5;stroke-linecap:butt;stroke-linejoin:miter;stroke-miterlimit:3.79999995;stroke-dasharray:none;stroke-opacity:1"
           d="m 17.75,23.801 2.898,0" />
      </g>
      <g
         id="g24109"
         transform="matrix(0.86660224,0,0,0.86660224,639.91828,306.40687)">
        <path
           inkscape:connector-curvature="0"
           id="path24111"
           style="fill:none;stroke:#000000;stroke-width:0.5;stroke-linecap:butt;stroke-linejoin:miter;stroke-miterlimit:3.79999995;stroke-dasharray:none;stroke-opacity:1"
           d="m 100,23.801 -2.898,0" />
      </g>
      <text
         y="329.20117"
         x="644.03467"
         id="text24113"
         style="font-variant:normal;font-weight:normal;font-size:5.77763033px;font-family:'Liberation Serif';-inkscape-font-specification:LiberationSerif;writing-mode:lr-tb;fill:#000000;fill-opacity:1;fill-rule:nonzero;stroke:none">
        <tspan
           id="tspan24115"
           sodipodi:role="line"
           y="329.20117"
           x="644.03467 647.06787">10</tspan>
      </text>
      <text
         y="327.03467"
         x="650.10083"
         id="text24117"
         style="font-variant:normal;font-weight:normal;font-size:4.62159634px;font-family:'Liberation Serif';-inkscape-font-specification:LiberationSerif;writing-mode:lr-tb;fill:#000000;fill-opacity:1;fill-rule:nonzero;stroke:none">
        <tspan
           id="tspan24119"
           y="327.03467"
           x="650.10083">6</tspan>
      </text>
      <g
         id="g24121"
         transform="matrix(0.86660224,0,0,0.86660224,639.91828,306.40687)">
        <path
           inkscape:connector-curvature="0"
           id="path24123"
           style="fill:none;stroke:#000000;stroke-width:0.5;stroke-linecap:butt;stroke-linejoin:miter;stroke-miterlimit:3.79999995;stroke-dasharray:none;stroke-opacity:1"
           d="m 17.75,12.051 2.898,0" />
      </g>
      <g
         id="g24125"
         transform="matrix(0.86660224,0,0,0.86660224,639.91828,306.40687)">
        <path
           inkscape:connector-curvature="0"
           id="path24127"
           style="fill:none;stroke:#000000;stroke-width:0.5;stroke-linecap:butt;stroke-linejoin:miter;stroke-miterlimit:3.79999995;stroke-dasharray:none;stroke-opacity:1"
           d="m 100,12.051 -2.898,0" />
      </g>
      <text
         y="319.01859"
         x="644.03467"
         id="text24129"
         style="font-variant:normal;font-weight:normal;font-size:5.77763033px;font-family:'Liberation Serif';-inkscape-font-specification:LiberationSerif;writing-mode:lr-tb;fill:#000000;fill-opacity:1;fill-rule:nonzero;stroke:none">
        <tspan
           id="tspan24131"
           sodipodi:role="line"
           y="319.01859"
           x="644.03467 647.06787">10</tspan>
      </text>
      <text
         y="316.85211"
         x="650.10083"
         id="text24133"
         style="font-variant:normal;font-weight:normal;font-size:4.62159634px;font-family:'Liberation Serif';-inkscape-font-specification:LiberationSerif;writing-mode:lr-tb;fill:#000000;fill-opacity:1;fill-rule:nonzero;stroke:none">
        <tspan
           id="tspan24135"
           y="316.85211"
           x="650.10083">7</tspan>
      </text>
      <g
         id="g24137"
         transform="matrix(0.86660224,0,0,0.86660224,639.91828,306.40687)">
        <path
           inkscape:connector-curvature="0"
           id="path24139"
           style="fill:none;stroke:#000000;stroke-width:0.5;stroke-linecap:butt;stroke-linejoin:miter;stroke-miterlimit:3.79999995;stroke-dasharray:none;stroke-opacity:1"
           d="m 17.75,94.301 0,-2.903" />
      </g>
      <g
         id="g24141"
         transform="matrix(0.86660224,0,0,0.86660224,639.91828,306.40687)">
        <path
           inkscape:connector-curvature="0"
           id="path24143"
           style="fill:none;stroke:#000000;stroke-width:0.5;stroke-linecap:butt;stroke-linejoin:miter;stroke-miterlimit:3.79999995;stroke-dasharray:none;stroke-opacity:1"
           d="m 17.75,12.051 0,2.898" />
      </g>
      <g
         id="g24153"
         transform="matrix(0.86660224,0,0,0.86660224,639.91828,306.40687)">
        <path
           inkscape:connector-curvature="0"
           id="path24155"
           style="fill:none;stroke:#000000;stroke-width:0.5;stroke-linecap:butt;stroke-linejoin:miter;stroke-miterlimit:3.79999995;stroke-dasharray:none;stroke-opacity:1"
           d="m 38.301,94.301 0,-2.903" />
      </g>
      <g
         id="g24157"
         transform="matrix(0.86660224,0,0,0.86660224,639.91828,306.40687)">
        <path
           inkscape:connector-curvature="0"
           id="path24159"
           style="fill:none;stroke:#000000;stroke-width:0.5;stroke-linecap:butt;stroke-linejoin:miter;stroke-miterlimit:3.79999995;stroke-dasharray:none;stroke-opacity:1"
           d="m 38.301,12.051 0,2.898" />
      </g>
      <text
         y="396.66412"
         x="668.99347"
         id="text24161"
         style="font-variant:normal;font-weight:normal;font-size:5.77763033px;font-family:'Liberation Serif';-inkscape-font-specification:LiberationSerif;writing-mode:lr-tb;fill:#000000;fill-opacity:1;fill-rule:nonzero;stroke:none">
        <tspan
           id="tspan24163"
           sodipodi:role="line"
           y="396.66412"
           x="668.99347 672.02673">10</tspan>
      </text>
      <text
         y="394.49762"
         x="675.05969"
         id="text24165"
         style="font-variant:normal;font-weight:normal;font-size:4.62159634px;font-family:'Liberation Serif';-inkscape-font-specification:LiberationSerif;writing-mode:lr-tb;fill:#000000;fill-opacity:1;fill-rule:nonzero;stroke:none">
        <tspan
           id="tspan24167"
           y="394.49762"
           x="675.05969">1</tspan>
      </text>
      <g
         id="g24169"
         transform="matrix(0.86660224,0,0,0.86660224,639.91828,306.40687)">
        <path
           inkscape:connector-curvature="0"
           id="path24171"
           style="fill:none;stroke:#000000;stroke-width:0.5;stroke-linecap:butt;stroke-linejoin:miter;stroke-miterlimit:3.79999995;stroke-dasharray:none;stroke-opacity:1"
           d="m 58.898,94.301 0,-2.903" />
      </g>
      <g
         id="g24173"
         transform="matrix(0.86660224,0,0,0.86660224,639.91828,306.40687)">
        <path
           inkscape:connector-curvature="0"
           id="path24175"
           style="fill:none;stroke:#000000;stroke-width:0.5;stroke-linecap:butt;stroke-linejoin:miter;stroke-miterlimit:3.79999995;stroke-dasharray:none;stroke-opacity:1"
           d="m 58.898,12.051 0,2.898" />
      </g>
      <text
         y="396.66412"
         x="686.84344"
         id="text24177"
         style="font-variant:normal;font-weight:normal;font-size:5.77763033px;font-family:'Liberation Serif';-inkscape-font-specification:LiberationSerif;writing-mode:lr-tb;fill:#000000;fill-opacity:1;fill-rule:nonzero;stroke:none">
        <tspan
           id="tspan24179"
           sodipodi:role="line"
           y="396.66412"
           x="686.84344 689.87671">10</tspan>
      </text>
      <text
         y="394.49762"
         x="692.90967"
         id="text24181"
         style="font-variant:normal;font-weight:normal;font-size:4.62159634px;font-family:'Liberation Serif';-inkscape-font-specification:LiberationSerif;writing-mode:lr-tb;fill:#000000;fill-opacity:1;fill-rule:nonzero;stroke:none">
        <tspan
           id="tspan24183"
           y="394.49762"
           x="692.90967">2</tspan>
      </text>
      <g
         id="g24185"
         transform="matrix(0.86660224,0,0,0.86660224,639.91828,306.40687)">
        <path
           inkscape:connector-curvature="0"
           id="path24187"
           style="fill:none;stroke:#000000;stroke-width:0.5;stroke-linecap:butt;stroke-linejoin:miter;stroke-miterlimit:3.79999995;stroke-dasharray:none;stroke-opacity:1"
           d="m 79.449,94.301 0,-2.903" />
      </g>
      <g
         id="g24189"
         transform="matrix(0.86660224,0,0,0.86660224,639.91828,306.40687)">
        <path
           inkscape:connector-curvature="0"
           id="path24191"
           style="fill:none;stroke:#000000;stroke-width:0.5;stroke-linecap:butt;stroke-linejoin:miter;stroke-miterlimit:3.79999995;stroke-dasharray:none;stroke-opacity:1"
           d="m 79.449,12.051 0,2.898" />
      </g>
      <text
         y="396.66412"
         x="704.65277"
         id="text24193"
         style="font-variant:normal;font-weight:normal;font-size:5.77763033px;font-family:'Liberation Serif';-inkscape-font-specification:LiberationSerif;writing-mode:lr-tb;fill:#000000;fill-opacity:1;fill-rule:nonzero;stroke:none">
        <tspan
           id="tspan24195"
           sodipodi:role="line"
           y="396.66412"
           x="704.65277 707.68604">10</tspan>
      </text>
      <text
         y="394.49762"
         x="710.71899"
         id="text24197"
         style="font-variant:normal;font-weight:normal;font-size:4.62159634px;font-family:'Liberation Serif';-inkscape-font-specification:LiberationSerif;writing-mode:lr-tb;fill:#000000;fill-opacity:1;fill-rule:nonzero;stroke:none">
        <tspan
           id="tspan24199"
           y="394.49762"
           x="710.71899">3</tspan>
      </text>
      <g
         id="g24201"
         transform="matrix(0.86660224,0,0,0.86660224,639.91828,306.40687)">
        <path
           inkscape:connector-curvature="0"
           id="path24203"
           style="fill:none;stroke:#000000;stroke-width:0.5;stroke-linecap:butt;stroke-linejoin:miter;stroke-miterlimit:3.79999995;stroke-dasharray:none;stroke-opacity:1"
           d="m 100,94.301 0,-2.903" />
      </g>
      <g
         id="g24205"
         transform="matrix(0.86660224,0,0,0.86660224,639.91828,306.40687)">
        <path
           inkscape:connector-curvature="0"
           id="path24207"
           style="fill:none;stroke:#000000;stroke-width:0.5;stroke-linecap:butt;stroke-linejoin:miter;stroke-miterlimit:3.79999995;stroke-dasharray:none;stroke-opacity:1"
           d="m 100,12.051 0,2.898" />
      </g>
      <text
         y="396.66412"
         x="722.46216"
         id="text24209"
         style="font-variant:normal;font-weight:normal;font-size:5.77763033px;font-family:'Liberation Serif';-inkscape-font-specification:LiberationSerif;writing-mode:lr-tb;fill:#000000;fill-opacity:1;fill-rule:nonzero;stroke:none">
        <tspan
           id="tspan24211"
           sodipodi:role="line"
           y="396.66412"
           x="722.46216 725.49542">10</tspan>
      </text>
      <text
         y="394.49762"
         x="728.52838"
         id="text24213"
         style="font-variant:normal;font-weight:normal;font-size:4.62159634px;font-family:'Liberation Serif';-inkscape-font-specification:LiberationSerif;writing-mode:lr-tb;fill:#000000;fill-opacity:1;fill-rule:nonzero;stroke:none">
        <tspan
           id="tspan24215"
           y="394.49762"
           x="728.52838">4</tspan>
      </text>
      <g
         id="g24217"
         transform="matrix(0.86660224,0,0,0.86660224,639.91828,306.40687)">
        <path
           inkscape:connector-curvature="0"
           id="path24219"
           style="fill:none;stroke:#000000;stroke-width:0.5;stroke-linecap:butt;stroke-linejoin:miter;stroke-miterlimit:3.79999995;stroke-dasharray:none;stroke-opacity:1"
           d="m 17.75,12.051 82.25,0 0,82.25 -82.25,0 0,-82.25 z" />
      </g>
      <text
         y="735.04114"
         x="-387.10583"
         id="text24221"
         style="font-variant:normal;font-weight:normal;font-size:5.77763033px;font-family:'Liberation Serif';-inkscape-font-specification:LiberationSerif;writing-mode:lr-tb;fill:#000000;fill-opacity:1;fill-rule:nonzero;stroke:none"
         transform="matrix(0,-1,1,0,0,0)">
        <tspan
           id="tspan24223"
           sodipodi:role="line"
           y="735.04114"
           x="-387.10583 -382.72638 -379.69312 -374.97858 -371.94531 -369.25873 -367.23654 -365.72281 -362.68954 -360.66739 -359.15366 -355.4502 -352.41693 -349.73032 -348.04904 -345.01578 -342.32919 -340.64789 -337.9613 -334.92804 -333.41431 -329.02908 -326.00159 -322.96835 -320.27597">Number of Evaluated Nodes</tspan>
      </text>
      <text
         y="404.21753"
         x="674.47406"
         id="text24225"
         style="font-variant:normal;font-weight:normal;font-size:5.77763033px;font-family:'Liberation Serif';-inkscape-font-specification:LiberationSerif;writing-mode:lr-tb;fill:#000000;fill-opacity:1;fill-rule:nonzero;stroke:none">
        <tspan
           id="tspan24227"
           sodipodi:role="line"
           y="404.21753"
           x="674.47406 677.84821 680.53479 683.22137 685.24353 687.93011 690.96338 692.47711 696.85657 699.54895 702.58221 704.25775">Search Depth</tspan>
        <tspan
           id="tspan24229"
           sodipodi:role="line"
           y="314.43619"
           x="669.77881 672.81207 674.49335 676.85065 678.53192 680.2132 682.89984 684.58112 686.26239 688.28455 690.64185 693.32843 695.0097 697.81763 700.85089 702.87311 705.90631 708.93958">visitall-sat11-p20</tspan>
      </text>
      <g
         id="g24235"
         transform="matrix(0.86660224,0,0,0.86660224,639.91828,306.40687)">
        <path
           inkscape:connector-curvature="0"
           id="path24237"
           style="fill:none;stroke:#9400d3;stroke-width:0.5;stroke-linecap:butt;stroke-linejoin:miter;stroke-miterlimit:3.79999995;stroke-dasharray:none;stroke-opacity:1"
           d="m 89.102,17.898 4.898,0" />
      </g>
      <g
         id="g24239"
         transform="matrix(0.86660224,0,0,0.86660224,639.91828,306.40687)">
        <path
           inkscape:connector-curvature="0"
           id="path24241"
           style="fill:none;stroke:#9400d3;stroke-width:0.5;stroke-linecap:butt;stroke-linejoin:miter;stroke-miterlimit:3.79999995;stroke-dasharray:none;stroke-opacity:1"
           d="m 17.75,90.75 6.199,-2.051 3.602,-2.597 2.597,2.597 1.954,2.051 1.648,0 1.398,-3.5 1.153,3.5 1.051,-2.051 1.796,0 0.801,2.051 0.699,-3.5 0.653,-1.148 1.199,0 0.551,-0.954 0.5,0 0.5,-0.796 0.898,0 0.403,-0.653 0.398,-1.148 0.398,0 0.352,1.801 0.352,-1.25 0.347,-1.5 0.301,2.097 0.301,0.653 0.301,1.75 0.296,-1.75 0.301,-0.653 0.25,5 0.301,-1.449 0.25,1.449 0.25,-1.449 0.25,-1.148 0.25,-2.403 0.199,0 0.25,-1.648 0.199,1.051 0.25,0 0.204,2.046 0.199,-0.796 0.199,-0.653 0.199,2.403 0.199,-0.954 0.153,0.954 0.199,0 0.199,-2.403 0.153,-1.148 0.199,1.801 0.148,2.898 0.153,0 0.199,1.449 0.148,0 0.153,-1.449 0.148,1.449 0.148,5.602 0.153,-5.602 0.148,2.051 0.301,0 0.148,-3.5 0.153,-2.898 0.398,0 0.102,-2.301 0.148,1.051 0.102,-1.903 0.148,0.403 0.102,-0.75 0.148,-2.102 0.102,0.5 0.097,0.898 0.153,0.352 0.097,-0.352 0.102,0 0.148,0.352 0.102,-0.648 0.102,-1.551 0.097,0 0.102,1.25 0.097,0 0.153,-0.551 0.097,0.551 0.102,-0.801 0.102,-2.148 0.097,-0.852 0.102,-0.25 0.097,0.25 0.102,0.398 0.051,-0.648 0.097,-0.148 0.102,-0.801 0.102,-0.602 0.097,0.801 0.102,0.102 0.097,-0.801 0.051,-0.403 0.102,-0.25 0.097,0.454 0.102,0.097 0.051,-0.301 0.097,-0.046 0.102,-1.454 0.051,0.403 0.097,0.199 0.102,-0.602 0.051,0.051 0.097,-0.301 0.051,0.102 0.102,-0.25 0.051,0.602 0.097,-0.204 0.102,0 0.051,0.051 0.097,-0.25 0.051,0 0.102,-0.551 0.046,-0.347 0.051,-0.25 0.102,0.5 0.051,-0.352 0.097,0.153 0.051,0.25 0.102,0.648 0.046,0.352 0.051,-0.704 0.102,-0.148 0.051,-0.699 0.046,-0.449 0.102,0.046 0.051,0 0.051,-0.347 0.097,-0.551 0.051,0.102 0.051,0.449 0.097,-0.25 0.051,-0.051 0.051,-0.102 0.051,-0.296 0.097,-0.551 0.051,-0.352 0.051,-0.25 0.051,0.199 0.097,0.153 0.051,-0.699 0.051,0.296 0.051,0.153 0.051,-0.352 0.046,0 0.102,-0.25 0.051,0.051 0.051,-0.148 0.046,0 0.051,0.5 0.051,0.449 0.051,0.051 0.097,0.199 0.051,0.398 0.051,0.25 0.051,0.903 0.051,0.097 0.046,0.102 0.051,0.25 0.051,-0.051 0.051,0.301 0.051,-0.75 0.046,0.398 0.051,-0.5 0.051,0.051 0.051,0.301 0.051,-0.301 0.046,0.148 0.051,-0.25 0.051,-0.546 0.051,0.148 0.051,0.301 0.046,-0.199 0.051,0 0.051,-0.301 0.051,0.648 0.051,0.403 0.046,0.296 0.051,-0.597 0.051,0.648 0.051,0.301 0.051,-0.301 0.046,-0.949 0.051,0.301 0.051,-0.153 0.051,0.204 0.051,0.5 0.046,0.398 0.051,0.449 0.051,-0.347 0,0.199 0.102,0 0.046,0.199 0.051,-0.398 0.051,-0.051 0.051,0.051 0.051,0.347 0,0.25 0.046,0.301 0.051,-0.352 0.051,-0.847 0.051,0.398 0.051,0.102 0.046,-0.153 0,-0.597 0.051,-0.199 0.051,-0.403 0.051,1.449 0.051,0.301 0.046,0.199 0,0.25 0.051,-0.449 0.051,0 0.051,0.403 0.051,0.796 0,0.602 0.046,0.199 0.051,-0.449 0.051,0.551 0,-0.75 0.051,-1.102 0.051,-0.301 0.046,-0.25 0.051,-0.25 0.051,0.852 0.051,-0.051 0.051,0 0,0.153 0.046,-1.25 0.051,-0.051 0.051,-0.301 0,-0.25 0.051,0.602 0.051,-0.102 0.046,-0.102 0,0.454 0.051,0 0.051,-0.75 0,0.296 0.051,0.454 0.051,0 0.046,-0.5 0,-0.25 0.051,-0.75 0.051,0.097 0,-0.597 0.051,0.199 0.051,0.301 0,-0.153 0.046,-0.051 0.051,0.102 0.051,0.449 0,-0.148 0.051,0 0.051,0.449 0,-0.051 0.046,0.653 0.051,-0.801 0,-0.25 0.051,0.699 0.051,0.602 0,0.097 0.051,-0.801 0.046,-0.597 0,-0.801 0.051,-0.148 0,-0.551 0.051,-0.102 0.051,-0.148 0,0.25 0.051,0.199 0.046,0.301 0,-0.5 0.051,0.301 0.051,-0.051 0,-0.449 0.051,-0.102 0,-0.051 0.051,-0.347 0.046,-0.5 0,-0.204 0.051,0.102 0,0.102 0.051,-0.153 0.051,0.5 0,-0.597 0.051,-0.204 0.046,0.5 0,0.25 0.051,-0.296 0,-0.153 0.051,0.25 0,-0.25 0.051,0.051 0.051,0.25 0,-0.5 0.046,0.301 0,-0.5 0.051,-0.352 0.051,0.051 0,-0.148 0.051,0 0,0.097 0.051,0.75 0,-0.199 0.046,0 0.051,-0.102 0,-0.847 0.051,0.097 0,-0.097 0.051,-0.5 0,-0.102 0.051,-0.148 0.046,-0.153 0.051,0.301 0,0.051 0.051,-0.051 0,-0.148 0.051,-0.102 0,-0.398 0.051,0.051 0,-0.051 0.046,0.051 0.051,-0.301 0,-0.051 0.051,-0.648 0.051,0.296 0,0.051 0.051,0.051 0.046,-0.102 0,-0.347 0.051,0.148 0,0.352 0.051,-0.153 0,-0.296 0.051,0.097 0,0.352 0.051,-0.102 0,0.25 0.046,-0.199 0,0.148 0.051,0 0.051,0.153 0,-0.153 0.051,0.051 0.051,-0.051 0,0.204 0.046,-0.352 0,-0.301 0.051,-0.301 0,0.25 0.051,0.153 0,-0.199 0.051,-0.602 0,-0.199 0.051,0.051 0,-0.153 0.046,0.102 0,-0.153 0.051,0.051 0,0.051 0.051,-0.352 0,-0.347 0.051,0.347 0,-0.347 0.051,0 0,-0.051 0.046,-0.352 0,-0.148 0.051,-0.25 0,0.051 L 71,61.5 l 0,-0.398 0.051,0 0,-0.403 0.051,0 0,-0.301 0.046,-0.25 0,0.102 0.051,0.148 0,-0.25 0.051,-0.148 0.051,-0.051 0,-0.398 0.051,-0.153 0,-0.148 0.046,-0.148 0,0.148 0.051,-0.301 0,0.102 0.051,0.097 0,-0.097 0.051,-0.051 0,-0.102 0.051,-0.097 0,-0.153 0.046,0.102 0,-0.352 0.051,0 0,-0.046 0.051,-0.25 0,0.046 0.051,0 0,0.25 0.051,0.102 0,-0.051 0.046,-0.25 0,-0.398 0.051,-0.153 0,0.102 0.051,-0.148 0,-0.204 0.051,0.153 0.051,0.097 0,-0.046 0.046,0 0,-0.25 0.051,-0.153 0,-0.051 0.051,0.051 0,0.102 0.051,-0.102 0.051,-0.148 0,0.097 0.046,-0.148 0,-0.25 0.051,-0.148 0.051,0 0,-0.204 0.051,0.051 0.051,-0.051 0,-0.148 0.046,-0.199 0,-0.153 0.051,0.102 0,-0.25 0.051,-0.051 0,0.051 0.051,-0.199 0.051,-0.102 0,-0.301 0.046,-0.148 0,-0.051 0,0.153 0.051,-0.204 0,0.051 0.051,0 0,-0.199 0.051,-0.102 0,-0.046 0,0.046 0.051,-0.046 0.046,-0.102 0,0.051 0.051,-0.102 0,-0.051 0,0.051 0.051,0 0,-0.148 0.051,0 0,-0.102 0.051,-0.097 0,-0.051 0.046,0 0,-0.301 0.051,0 0,-0.148 0.051,0 0,-0.204 0.051,-0.199 0,-0.148 0.051,-0.102 0,-0.097 0.046,0 0,-0.051 0,0.051 0.051,0 0,-0.153 0,0.051 0.051,-0.051 0,-0.199 0.051,-0.199 0,-0.25 0.051,-0.051 0,-0.199 0.046,-0.102 0,-0.25 0.051,-0.097 0,-0.102 L 74,51.148 74,51 l 0.051,-0.199 0,-0.051 0.051,0 0,0.051 0,-0.051 0.046,-0.102 0,-0.046 0.051,-0.051 0,-0.102 0.051,-0.097 0,-0.051 0.051,0.051 0,0.097 0.097,-0.097 0.051,0.046 0,-0.097 0.102,0 0,-0.25 0.051,-0.102 0,-0.051 0,0.051 0.046,0.051 0,0.051 0.051,-0.051 0,-0.051 0.051,0 0,-0.097 0,0.046 0.051,-0.046 0,-0.051 0,0.051 0.051,-0.051 0,-0.153 0.046,-0.046 0,0.148 0,-0.148 0.051,-0.102 0,-0.051 0.051,0 0,-0.097 0,0.046 0.051,0.051 0,0.051 0,-0.051 0.051,0 0,-0.097 0.046,-0.051 0,0.148 0.051,0.051 0,0.102 0.051,0 0,0.046 0,-0.046 0,0.046 0.102,0.102 0,0.102 0.046,0.097 0,0.051 0.051,0.051 0,-0.102 0.051,-0.051 0,-0.046 0,0.097 0,-0.051 0.051,0.051 0,0.051 0.051,-0.102 0,0.102 0,-0.051 0.046,0 0,0.153 0.051,0.046 0,0.153 0.051,0.051 0,-0.102 0,0.051 0.051,0.097 0,0.153 0.051,0 0,-0.102 0.046,0 0,0.051 0.051,0.102 0,0.097 0.051,0.102 0,0.25 0.051,0 0.051,0.051 0,0.347 0.046,-0.051 0,0.25 0.051,0.204 0,-0.051 0,0.25 0.051,0.097 0,0.153 0.051,-0.051 0,0.051 0.051,0.301 0,0.148 0.046,0 0,0.102 0,-0.102 0.051,0.148 0,0.102 0,-0.051 0,0.153 0.051,0.046 0,0.25 0.051,0 0,0.153 0,-0.051 0.051,0.102 0,0.097 0,-0.051 0,0.051 0.046,0.051 0,0.25 0.051,0.051 0,-0.102 0,0.153 0.051,0.046 0,0.204 0,-0.102 0.051,0.102 0,0.296 0.051,0.102 0,-0.051 0,0.199 0.046,-0.046 0,0.398 0.051,0 0,0.5 0.051,-0.051 0,0.352 0.051,0.148 0,0.301 0.051,0.051 0,0.097 0.046,-0.148 0,0.5 0,-0.199 0.051,0.199 0,0.648 0,-0.046 0.051,0.25 0,0.546 0.051,0.051 0,0.551 0.051,0.199 0,0.199 0.046,-0.097 0,-0.051 0,0.148 0,-0.148 0.051,0.25 0,0.602 0.051,0.097 0,0.301 0.051,0.148 0,-0.046 0,0.347 0.051,-0.051 0,0.204 0,-0.153 0,0.301 0.046,0.199 0,0.051 0,-0.051 0.051,0.352 0,0.148 0,-0.25 0.051,0.25 0,-0.398 0,0.597 0.051,0.153 0,0.551 0.051,-0.25 0,1.097 0.046,0.301 0,0.25 0,-0.051 0,0.352 0.051,0.148 0,-0.347 0.051,0.347 0,-0.301 0,0.204 0,-0.051 0,0.148 0.051,0.153 0,-0.403 0.051,-0.051 0,0.102 0,-0.102 0,0.051 0.046,0.102 0,0.148 0,-0.051 0,0.25 0,-0.199 0.051,0 0,-0.148 0,0.148 0,-0.148 0.051,-0.449 0,0.25 0,-0.204 0.051,-0.046 0,0.75 0.051,-0.301 0,0.097 0,-0.148 0,0.102 0.046,-0.051 0,0.051 0,-0.352 0,0.449 0,-0.25 0.051,0.5 0,0.25 0,-0.148 0,0.398 0.051,0.051 0,0.25 0,-0.148 0,0.398 0.051,0.5 0,-0.5 0,0.5 0.051,0.051 0,0.148 0,-0.801 0.046,-0.199 0,-0.449 0,0.148 0.051,0.102 0,0.5 0.051,0.551 0,0.699 0,-0.051 0.051,0.551 0,-0.398 0,0.648 0.051,0.199 0,-0.5 0,0.801 0.046,-0.102 0,-0.25 0,1.5 0.051,0.25 0,0.801 0,-0.75 0.051,0.602 0,0.847 0,-0.449 0,0.051 0.051,0.648 0,-0.398 0,2.148 0,-1.148 0.051,0.852 0,0.199 0,-0.153 0,0.602 0.046,0.5 0,-0.102 0,0.403 0,-1.25 0,0.949 0.051,0.602 0,1.949 0,-1.199 0,1.5 0.051,-0.153 0,1.602 0,-2.403 0.051,0.153 0,1 0,-0.852 0,0.5 0.051,1.602 0,5.148 0,-3.199 0,0.352 0,-0.704 0.046,-1.398 0,0.5 0,-1.949 0.051,-0.699 0,-3.102 0,0.148 0,-0.25 0.051,0.852 0,-0.398 0,1.898 0,-0.648 0.051,2.199 0,0.551 0,-0.75 0,1 0.051,-0.602 0,5.051 0,-0.5 0.046,1.648 0,5 0,-1.449 0.051,3.5 0,-3.5 0,1.449 0,-3.551 0.051,3.551 0,5.602" />
      </g>
      <g
         id="g24247"
         transform="matrix(0.86660224,0,0,0.86660224,639.91828,306.40687)">
        <path
           inkscape:connector-curvature="0"
           id="path24249"
           style="fill:none;stroke:#009e73;stroke-width:0.5;stroke-linecap:butt;stroke-linejoin:miter;stroke-miterlimit:3.79999995;stroke-dasharray:none;stroke-opacity:1"
           d="m 89.102,23.801 4.898,0" />
      </g>
      <g
         id="g24251"
         transform="matrix(0.86660224,0,0,0.86660224,639.91828,306.40687)">
        <path
           inkscape:connector-curvature="0"
           id="path24253"
           style="fill:none;stroke:#009e73;stroke-width:0.5;stroke-linecap:butt;stroke-linejoin:miter;stroke-miterlimit:3.79999995;stroke-dasharray:none;stroke-opacity:1"
           d="m 17.75,87.25 6.199,-7.102 3.602,-6.75 2.597,-6.296 1.954,-6.25 1.648,-6 1.398,-0.75 8.903,0 0.898,-0.102 0.403,0.051 0.398,0.097 2.648,0 0.301,-0.046 0.25,0 0.301,-0.204 0.25,-0.148 0.25,0 0.25,0.602 0.25,0.546 0.199,-0.449 0.25,-0.148 0.199,-0.102 0.25,0 0.204,-0.051 0.199,0 0.199,0.051 0.949,0 0.153,-0.051 0.199,-0.347 0.148,0.5 0.153,0.398 0.199,-0.551 0.148,0 0.153,0.051 1.296,0 0.153,-0.199 0.148,0.051 0.102,-0.051 0.148,0.25 0.102,0.301 0.148,-0.25 0.102,0 0.148,-0.051 1,0 0.102,0.051 0.097,-0.051 0.153,-0.102 0.097,-0.148 0.102,0.301 0.102,0.347 0.097,-0.296 0.102,-0.102 0.199,0 0.051,0.051 0.949,0 0.051,-0.051 0.199,0 0.051,0.051 0.097,0 0.102,-0.051 0.051,0.051 0.097,-0.153 0.153,0 0.051,0.301 0.097,0.153 0.102,-0.25 0.051,0.046 0.097,-0.046 0.352,0 0.051,-0.051 0.097,0 0.051,0.051 0.699,0 0.051,0.046 0.051,0 0.097,-0.296 0.051,-0.153 0.051,0.153 0.051,0.296 0.097,0.454 0.051,0 0.051,-0.352 0.051,-0.148 0.097,0 0.051,0.046 0.699,0 0.051,0.051 0.051,-0.051 0.148,0 0.051,-0.046 0.051,-0.051 0.051,-0.102 0.051,0.153 0.046,0.148 0.051,-0.148 0.051,0.046 0.051,0.301 0.051,-0.051 0.046,-0.25 0.051,0.051 0.102,0 0.051,0.051 0.046,0 0.102,-0.102 0.051,0 0.051,0.051 0.046,0.051 0.051,-0.051 0.25,0 0.051,0.051 0.051,-0.051 0.051,0.051 0.046,0 0.051,0.051 L 65,54.5 l 0,-0.352 0.051,0.153 0.051,-0.051 0.046,0.301 0.051,0.347 0.051,-0.199 0.051,0.051 0.051,-0.25 0.398,0 0.051,0.051 0.051,0 0.046,-0.051 0.051,0.051 0.153,0 0.046,-0.051 0.051,0 0.051,-0.051 0,-0.051 0.051,0.153 0.051,0.097 0.046,-0.347 0.051,0.398 0,0.199 0.051,-0.5 0.051,0.204 0.051,0.097 0,-0.097 0.25,0 0.046,-0.051 0.051,0.051 0.352,0 0.051,0.046 0,0.051 0.046,-0.051 0.051,-0.097 0.051,-0.199 0,0.097 0.051,0 0.051,0.199 0,0.301 0.046,-0.148 0.051,0.051 0,-0.153 0.051,-0.051 0.051,-0.046 0,0.046 0.449,0 0,0.051 0.051,0 0.097,-0.097 0,-0.051 0.051,-0.102 0.051,0.051 0.051,-0.051 0,-0.097 0.051,0.148 0.046,-0.051 0,0.449 0.051,0.102 0,-0.398 0.051,0.296 0,0.352 0.051,0.051 0.051,-0.449 0,-0.153 0.046,0 0,0.051 0.153,0 0,-0.051 0.051,-0.051 0,0.102 0.296,0 0.051,0.051 0,0.051 0.051,-0.051 0,-0.153 0.051,0.051 0,-0.097 0.051,0.046 0,-0.046 0.046,0.25 0,0.296 0.051,-0.296 0,0.046 0.051,-0.046 0.051,0 0,-0.051 0.051,-0.051 0,0.051 0.347,0 0,0.051 0.051,0 0.051,-0.051 0,-0.051 0.051,-0.051 0,-0.097 0.046,0.199 0.051,-0.051 0,0.398 0.051,-0.296 0,0.097 0.051,0.051 0,-0.148 0.051,-0.051 0,-0.199 0.046,0.398 0,0.102 0.051,-0.204 0.102,0 0,-0.046 0.051,-0.051 0,0.097 0.25,0 0,0.051 0.046,0.051 0,-0.102 0.051,-0.046 0.051,0.046 0,-0.148 0.051,0.051 0,-0.051 0,0.25 0.051,0.301 0,-0.25 0.046,-0.051 0,-0.051 0.051,0.051 0.051,-0.051 0.301,0 0,0.051 0.051,0 0.046,-0.051 0,-0.097 0.051,-0.204 0,0.153 0.051,-0.051 0,-1.051 0.051,-1.75 0,0.75 0.051,2.352 0,-0.25 0.046,0.148 0,0.403 0.051,-0.301 0.051,0 0,-0.051 0.051,0.051 0.051,-0.051 0,-0.449 0.046,-0.153 0,-0.25 0,0.551 0.051,-0.25 0,0.051 0.051,2.25 0,-4.148 0.051,3.699 0,3.898 0.051,-4.75 0,-0.847 0.046,0.398 0,0.199 0.051,0.153 0,-0.403 0.051,-0.097 0,0.5 0.051,-0.301 0,-0.352 0.051,0.199 0,-1.398 0.046,1.398 0,-2.75 0.051,1.454 0,2.398 L 73,55.75 73,55 l 0.051,-0.25 0,-1 0.051,-0.25 0,1.551 0.046,2.097 0,-0.75 0.051,-2.75 0,-0.949 0,1.199 0.051,4.704 0,4.398 0,-4.699 0.051,-2.949 0,0.199 0,-0.25 0.051,0.051 0,-0.5 0.046,0 0,0.046 0,-0.25 0.051,0.25 0,-0.296 0.051,-1.102 0,1.551 0,-0.051 0.051,0.051 0,-0.403 0.051,2.403 0,-4.301 0.046,1.301 0,1.801 0.051,-0.602 0,-0.199 0,0.597 0.051,-0.597 0,-0.051 0.051,0 0,0.051 0.051,0.398 0,-0.699 0,0.398 0.046,0.051 0,-0.097 0.051,-0.301 0,-1.199 0.051,1.648 0,-2 0.051,-1.102 0,-0.648 0,2.352 0.051,1.898 0,-0.648 0,0.597 0.046,-0.25 0,-0.648 0.051,0.148 0,0.75 0.051,-0.898 0,0.449 0.051,0 0,-0.801 0.051,-0.597 0,0.949 0,-1.699 0.046,-0.204 0,0.801 0,-0.199 0.051,2.699 0,5.699 0,-0.898 0.051,2.602 0,-7.704 0.051,-0.199 0,0.102 0,-0.403 0.051,-0.046 0,-0.102 0.046,-0.102 0,0.204 0.051,-0.051 0,0.449 0.051,-0.148 0,-0.5 0.051,0.046 0,0.602 0.051,-0.102 0,-0.296 0.046,-0.454 0,-1.199 0.051,0.949 0,-1.699 0.051,0.602 0,-0.903 0,6.801 0.051,2.75 0,-6.597 0.051,0.046 0,0.653 0.046,-0.801 0,-0.25 0.051,0.051 0,0.148 0,-0.051 0.051,0.204 0,0.25 0,-0.301 0,0.148 0.051,-0.148 0,-0.25 0.051,0.148 0,0.25 0.046,-0.148 0,-0.551 0.051,-0.199 0,-1.051 0.051,1 0,-1.699 0,0.898 0.051,-1.199 0,4.199 0.051,-0.097 0,-2.352 0,0.949 0.046,0.102 0,-0.199 0.051,0.046 0,0.153 0,-0.051 0.051,0.199 0,0.25 0,-0.199 0,0.051 0.051,0.051 0,-0.454 0,0.204 0.051,0 0,0.148 0,-0.102 0,0.051 0.046,0.051 0,-0.25 0.051,0 0,-1.398 0.051,-0.153 0,0.801 0,-1.602 0.051,1.051 0,-2 0,0.051 0.051,2.852 0,0.199 0,-0.903 0,1.25 0.046,-0.449 0,0.5 0,-0.051 0.051,-0.148 0,-0.75 0,0.301 0.051,-1.25 0,-1.653 0,0.051 0.051,0.051 0,-0.301 0,0.102 0.051,0.5 0,0.148 0,-0.051 0,0.153 0.046,1.148 0,1.699 0,-0.546 0.051,-0.954 0,-3.199 0,2.25 0.051,2.75 0,0.301 0,-0.352 0.051,-0.148 0,-0.148 0,0.097 0.051,0.102 0,-0.051 0,0.602 0.046,-0.25 0,-0.301 0,0.097 0.051,-0.148 0,0.148 0,-0.898 0.051,-1.051 0,-1.097 0,2.199 0.051,-0.199 0,-2.204 0,0.653 0.051,3.449 0,0.449 0,-1.097 0.046,-0.051 0,-0.75 0.051,-0.949 0,-1.102 0,13.551 0,-5.449 L 77,56 l 0,-0.148 0.051,-0.153 0,0.25 0,-0.097 0.051,0.25 0,0.347 0,-0.551 0.046,-0.148 0,0.301 0,-0.153 0,0.301 0.051,-0.148 0,-0.199 0,0.148 0.051,-0.102 0,-0.648 0.051,0.398 0,-1.347 0,2.949 0.051,4.602 0,-8.551 0.046,1.597 0,6.5 0,-5.148 0.051,-2.551 0,-0.398 0,1.551 0.051,3.199 0,-1.903 0,0.403 0,-0.551 0.051,-0.25 0,1.25 0,-1.301 0.051,-0.301 0,1.602 0,-1.5 0.046,-0.852 0,3.801 0,-2.398 0.051,-0.903 0,-1.648 0,2.398 0.051,0.204 0,-0.204 0,0.25 0.051,-0.097 0,0.597 0,-0.199 0.051,-0.347 0,-0.051 0,0.25 0,-0.199 0.046,0.046 0,0.25 0,-0.296 0.051,-0.051 0,0.051 0,-0.051 0.051,-0.25 0,-0.403 0,0.454 0,-1.204 0.051,-0.046 0,7.25 0,-7.75 0.051,-0.852 0,11.449 0.046,-4.551 0,-6.648 0.051,1.75 0,1.051 0,-0.199 0.051,-0.301 0,-3.199 0,0.347 0.051,0.801 0,2.648 0,-0.148 0.051,-0.051 0,0.051 0,-0.699 0,0.097 0.046,-1.148 0,8.051 0,-5.403 0.051,-0.796 0,-0.25 0,0.097 0.051,0.153 0,-0.102 0,0.648 0,-0.25 0.051,-0.296 0,-0.102 0,0.301 0.051,-0.25 0,0.347 0,-0.199 0.046,-0.097 0,-0.102 0,0.102 0,-0.102 0.051,-0.199 0,-0.449 0,0.449 0,-1.25 0.051,0.097 0,7.051 0,-7.597 0.051,-0.954 0,6.852 0.051,1.5 0,-8.148 0.046,1.25 0,1.597 0,-0.097 0,0.398 0.051,-0.199 0,-4.5 0.051,2.199 0,1.699 0,-1.5 0,1.852 0.051,0.148 0,0.102 0,-1.25 0,0.898 0.051,-0.449 0,-3.5 0,4.25 0.046,-0.148 0,0.25 0,-0.153 0,0.75 0.051,-0.25 0,-0.449 0,0.301 0.051,-0.051 0,-0.199 0,0.347 0.051,-0.148 0,-0.25 0.051,0.102 0,-0.75 0,0.5 0.046,-0.352 0,-1.051 0,7 0.051,-5.301 0,-3.097 0,4 0,-0.102 0.051,1.602 0,4.597 0,-12.347 0.051,-0.801 0,6.352 0.051,0 0.046,-0.051 0,0.148 0.051,0 0,-0.148 0,0.148 0.051,-0.25 0,0.5 0,-0.25 0.051,0 0,-0.097 0,0.148 0,-0.102 0.051,0 0,0.051 0.097,0 0,-0.051 0,0.051 0,-0.097 0,0.046 0.051,-0.046 0,0.097 0,-0.148 0,0.097 0,-0.296 0.051,-0.153 0,-0.847 0,0.699 0,-2.403 0.051,2.454 0,1.699 0,-1.051 0.046,-0.25 0,0.25 0,-2.352 0.051,1.153 0,8.25 0,-7.102 0.051,0 0,-0.148 0,0.25 0,-0.153 0,0.403 0.051,0.398 0,-0.699 0,0.199 0.051,0 0,-0.199 0,0.102 0,-0.102 0,0.398 0.046,-0.148 0,-0.199 0.051,-0.102 0,0.153 0,-0.852 0,0.551 0.051,-0.403 0,-1.097 0,6.648 0,-5.301 0.051,-1.75 0,-0.699 0,3.852 0,-0.051 0,1.801 0.051,3.949 0,-12.75 0,3.852 0.046,1.546 0,0.903 0.051,0 0,0.051 0,-0.102 0,0.051 0.051,0.148 0,-0.148 0,0.097 0.051,0 0,-0.25 0,0.551 0.051,-0.25 0,-0.097 0,0.097 0.046,0.051 0,-0.102 0,0.051 0.102,0 0,-0.097 0,0.097 0.051,-0.097 0,0.046 0,-0.199 0,0.051 0,-0.148 0.051,-0.801 0,0.648 0,-2.398 0,3.449 0.046,0.398 0,-0.699 0,0.051 0,-0.352 0,0.051 0.051,-0.051 0,-0.699 0,0.25 0,-4 0,0.449 0.051,3.301 0,0.75 0,-0.148 0,0.347 0,-0.347 0,0.699 0.051,0.301 0,-0.699 0,0.097 0.051,0 0,-0.148 0,0.097 0,-0.097 0,0.398 0,-0.148 0.046,-0.051 0,-0.25 0.051,0.102 0,0.046 0,-0.949 0,0.653 0,-0.454 0.051,-1.25 0,7.403 0,-7.949 0.051,1.699 0,6.949 0,-9.199 0.051,-2.551 0,-0.301 0,6.199 0.046,-0.046 0,0.046 0.051,0 0,-0.046 0,0.199 0,-0.199 0.051,0.097 0,0.051 0,-0.25 0,0.199 0.051,0.153 0,0.097 0,-0.25 0,0.051 0,-0.051 0.051,0.051 0,0.051 0,-0.051 0.046,0 0,0.051 0.051,0 0,-0.051 0,0.051 0,-0.153 0,0.102 0.051,-0.102 0,0.051 0,-0.398 0,0.199 0,-0.699 0,0.097 0.051,0.301 0,-2.199 0,3.75 0.051,-0.449 0,0.551 0,-1.102 0,0.25 0.046,0.051 0,0.148 0,-0.25 0,0.051 0,-0.051 0,0.051 0,-0.051 0.051,-0.051 0,-0.949 0,2.602 0,-1.5 0.051,-0.051 0,-0.051 0,0.102 0.051,0 0.051,0.051 0,0.046 0,-0.097 0,0.051 0.046,0.046 0,-0.25 0,0.454 0,-0.204 0.051,0 0,-0.046 0,0.148 0.051,-0.102 0,0.051 0.051,0 0,0.051 0.051,-0.051 0,-0.097 0,0.046 0,-0.199 0,0.301 0.046,0.102 0,-0.852 0,0.25 0,-2.301 0,1.102 0.051,1.801 0,-0.051 0,0.25 0,-0.75 0.051,-0.403 0,-4.148 0,2.852 0.051,0.699 0,1.551 0,-0.102 0,0.102 0,-0.75 0.051,0.449 0,-3.949 0,4.25 0,-0.102 0,0.199 0.046,0 0,0.551 0,-0.5 0,0.102 0.051,0 0,-0.153 0,0.153 0,-0.153 0,0.449 L 83,59 l 0,-0.148 0.051,-0.051 0,0.051 0,-1.153 0,0.852 0,-0.653 0.051,-1.5 0,10.75 0,-10.796 0,3.097 0.046,0.551 0,4.352 0,-11.051 0,1.347 0.051,1.25 0,3.25 0.051,0 0,-0.046 0,0.148 0,-0.102 0.051,0 0,0.102 0,-0.25 0.051,0.102 0,0.296 0,-0.148 0.046,0 0,0.148 0,-0.148 0,0.051 0.051,0 0,0.051 0.051,0 0,-0.153 0,0.102 0.051,0 0,-0.102 0,0.153 0,-0.75 0,0.398 0,-2.398 0.051,1.148 0,1.801 0,-0.102 0,0.301 0,-0.352 0.046,-0.046 0,0.097 0,-3.801 0.051,0.301 0,3.699 0,-0.046 0,0.046 0,-0.046 0,0.097 0.051,-0.199 0,0.051 0,-1.153 0.051,-1.648 0,-0.949 0,4 0,-0.051 0,0.051 0.051,-0.051 0,0.102 0,-0.25 0,0.148 0,-0.148 0,0.097 0.046,-0.051 0,-3.699 0,3.903 0.051,0.148 0,0.102 0,-0.204 0,0.051 0,-0.347 0,0.5 L 84,60.398 84,60 l 0,0.051 0.051,0 0,-0.051 0,0.148 0,-0.148 0,0.102 0.051,0 0,0.046 0,-0.25 0,0.301 0.046,0.102 0,0.051 0,-0.204 0,0.051 0.051,0 0,0.102 0,-0.102 0,0.102 0.051,0 0,-0.153 0,0.25 0.051,-0.097 0,0.097 0,-0.25 0,0.204 0.051,-0.25 0,-0.454 0,0.204 0,-2.153 0,2.75 0,-0.097 0,0.296 0.046,-0.046 0,-0.153 0,0.051 0,-0.398 0,0.898 0.051,-0.449 0,0.051 0.051,0 0,0.097 0,-0.148 0,0.148 0,-0.051 0,0.051 0.051,0 0,0.051 0,-0.25 0,0.449 0.051,-0.199 0,0.102 0.046,0.046 0,-0.046 0,0.046 0.051,0 0,0.051 0,-0.148 0,0.097 0,-1.847 0.051,-1.551 0,0.102 0,-2.102 0.051,-0.5 0,-0.301 0,1.102 0,-0.102 0,0.102 0,-2.699 0.051,0.046 0,1.454 0,-0.75 0.046,0.5 0,1.699 0,-2.051 0,0.148 0.051,1 0,7.301 0,-0.25 0,0.199 0.051,-0.199 0,-0.097 0,0.296 0,-0.796 0,1.398 0.051,1.25 0,-1.699 0,0.051 0,-0.102 0,0.398 0,-0.347 0.051,-0.051 0,0.199 0,-1 0,2.602 0,-0.051 0.046,-1.551 0,0.051 0,-0.051 0,0.199 0,-0.148 0.051,0.051 0,0.148 0.051,0 0,-0.301 0,0.551 0,-0.199 0,0.051 0.051,0 0,0.051 0,-0.051 0,0.148 0,-0.051 0.051,0 0,0.102 0,-0.199 0,0.347 0,-0.148 0.046,0 0,-3.551 0,0.199 0.051,0 0,-1.347 0,1.597 0,-0.148 0,0.051 0.051,0.051 0,-0.653 0,4.903 0,-0.301 0.051,0.148 0,0.199 0,-0.546 0,0.25 0,-2.5 0.051,-1.653 0,4.352 0,-0.102 0,0.699 0,-0.449 0.046,-0.097 0,-0.051 0,0.301 0,-0.204 0,0.153 0.051,0 0,0.25 0,-0.199 0,0.097 0.051,0 0,-0.25 0,0.051 0,-0.801 0,0.5 0,-1.449 0,9.852 0,-5.403 0.051,-3.898 0,-1.102 0,7.403 0,-8.551 0.051,-0.199 0,-0.352 0,4.852 0,-0.051 0,0.148 0.046,0 0,0.153 0,-0.102 0,0.148 0.051,0.051 0,0.153 0,-0.25 0,0.546 0.051,-0.25 0,0.204 0.051,0.046 0,0.25 0.051,-0.046 0,-0.051 0,0.25 0,-4.403 0.046,-0.347 0,1.5 0,-0.449 0,0.347 0,-1.051 0,1.5 0.051,0.102 0,-0.102 0,3.551 0,-3.148 0,0.097 0.051,1.653 0,2.148 0,-0.699 0,2 0,-0.949 0,0.051 0,-0.301 0.051,0.097 0,-0.097 0,0.148 0,-0.097 0,1.847 0,-0.648 0.051,-0.75 0,-0.102 0,0.5 0,-0.051 0,0.301 0,-0.398 0,0.148 0.046,0.153 0,0.148 0,-1.148 0,3.597 0,-2.25 0,0.102 0.051,0.051 0,0.296 0,-0.046 0,0.25 0.051,0.046 0,0.5 0.051,0.102 0,0.5 0.051,0.051 0,0.699 0.046,0 0,0.398 0,-0.046 0,0.046 0,-3.648 0,0.102 0.051,1.199 0,0.148 0,-0.25 0,0.903 0,-1.801 0,2.449 0,-0.148 0,0.046 0,-0.046 0.051,0.199 0,5.949 0,-2 0,4.648 0.051,0.704 0,9.898" />
      </g>
      <g
         id="g24259"
         transform="matrix(0.86660224,0,0,0.86660224,639.91828,306.40687)">
        <path
           inkscape:connector-curvature="0"
           id="path24261"
           style="fill:none;stroke:#56b4e9;stroke-width:0.5;stroke-linecap:butt;stroke-linejoin:miter;stroke-miterlimit:3.79999995;stroke-dasharray:none;stroke-opacity:1"
           d="m 89.102,29.699 4.898,0" />
      </g>
      <g
         id="g24263"
         transform="matrix(0.86660224,0,0,0.86660224,639.91828,306.40687)">
        <path
           inkscape:connector-curvature="0"
           id="path24265"
           style="fill:none;stroke:#56b4e9;stroke-width:0.5;stroke-linecap:butt;stroke-linejoin:miter;stroke-miterlimit:3.79999995;stroke-dasharray:none;stroke-opacity:1"
           d="m 17.75,87.25 6.199,-7.102 3.602,-6.75 2.597,-6.296 1.954,-6.25 1.648,-6 1.398,-6.051 1.153,-5.852 1.051,-5.949 0.949,-5.75 0.847,-5.852 0.801,-5.75 0.699,11.551" />
      </g>
      <g
         id="g24271"
         transform="matrix(0.86660224,0,0,0.86660224,639.91828,306.40687)">
        <path
           inkscape:connector-curvature="0"
           id="path24273"
           style="fill:none;stroke:#e69f00;stroke-width:0.5;stroke-linecap:butt;stroke-linejoin:miter;stroke-miterlimit:3.79999995;stroke-dasharray:none;stroke-opacity:1"
           d="m 89.102,35.602 4.898,0" />
      </g>
      <g
         id="g24275"
         transform="matrix(0.86660224,0,0,0.86660224,639.91828,306.40687)">
        <path
           inkscape:connector-curvature="0"
           id="path24277"
           style="fill:none;stroke:#e69f00;stroke-width:0.5;stroke-linecap:butt;stroke-linejoin:miter;stroke-miterlimit:3.79999995;stroke-dasharray:none;stroke-opacity:1"
           d="m 17.75,87.25 6.199,-7.102 3.602,-6.398 2.597,-5.551 1.954,-5.301 1.648,-4.949 1.398,-4.5 1.153,-3.949 1.051,-3.449 0.949,-3 0.847,-2.653 0.801,-2.347 0.699,-1.949 0.653,-1.704 0.648,-1.347 L 42.5,32 l 0.551,-0.801 0.5,-0.5 0.5,-0.25 0.449,-0.051 0.449,0.204 0.403,0.398 0.398,0.551 0.398,0.75 0.352,0.898 0.352,1.051 0.347,1.199 0.301,1.449 0.301,1.602 0.301,1.852 0.296,2.046 0.301,2.204 0.25,2.5 0.301,2.75 0.25,2.847 0.25,3.199 0.25,3.75 0.25,4.403 0.199,4.051 0.25,3.546 0.199,6 0.25,3.954 0.204,5.648 0.199,3.5" />
      </g>
      <g
         id="g24279"
         transform="matrix(0.86660224,0,0,0.86660224,639.91828,306.40687)">
        <path
           inkscape:connector-curvature="0"
           id="path24281"
           style="fill:none;stroke:#000000;stroke-width:0.5;stroke-linecap:butt;stroke-linejoin:miter;stroke-miterlimit:3.79999995;stroke-dasharray:none;stroke-opacity:1"
           d="m 17.75,12.051 82.25,0 0,82.25 -82.25,0 0,-82.25 z" />
      </g>
      <text
         sodipodi:linespacing="98.000002%"
         id="text8748"
         y="338.88565"
         x="715.31427"
         style="color:#000000;font-style:normal;font-variant:normal;font-weight:bold;font-stretch:normal;font-size:5px;line-height:98.00000191%;font-family:'Noto Sans';-inkscape-font-specification:'Noto Sans Bold';text-indent:0;text-align:end;text-decoration:none;text-decoration-line:none;text-decoration-style:solid;text-decoration-color:#000000;letter-spacing:0px;word-spacing:0px;text-transform:none;direction:ltr;block-progression:tb;writing-mode:lr-tb;baseline-shift:baseline;text-anchor:end;white-space:normal;clip-rule:nonzero;display:inline;overflow:visible;visibility:visible;opacity:1;isolation:auto;mix-blend-mode:normal;color-interpolation:sRGB;color-interpolation-filters:linearRGB;solid-color:#000000;solid-opacity:1;fill:#000000;fill-opacity:1;fill-rule:nonzero;stroke:none;stroke-width:13.1879282;stroke-linecap:butt;stroke-linejoin:miter;stroke-miterlimit:4;stroke-dasharray:none;stroke-dashoffset:0;stroke-opacity:1;marker:none;marker-start:none;marker-mid:none;marker-end:none;color-rendering:auto;image-rendering:auto;shape-rendering:auto;text-rendering:auto;enable-background:accumulate"
         xml:space="preserve"><tspan
           y="338.88565"
           x="715.31427"
           id="tspan8750"
           sodipodi:role="line">Random</tspan></text>
      <text
         sodipodi:linespacing="98.000002%"
         id="text8752"
         y="333.6853"
         x="715.31427"
         style="color:#000000;font-style:normal;font-variant:normal;font-weight:bold;font-stretch:normal;font-size:5px;line-height:98.00000191%;font-family:'Noto Sans';-inkscape-font-specification:'Noto Sans Bold';text-indent:0;text-align:end;text-decoration:none;text-decoration-line:none;text-decoration-style:solid;text-decoration-color:#000000;letter-spacing:0px;word-spacing:0px;text-transform:none;direction:ltr;block-progression:tb;writing-mode:lr-tb;baseline-shift:baseline;text-anchor:end;white-space:normal;clip-rule:nonzero;display:inline;overflow:visible;visibility:visible;opacity:1;isolation:auto;mix-blend-mode:normal;color-interpolation:sRGB;color-interpolation-filters:linearRGB;solid-color:#000000;solid-opacity:1;fill:#000000;fill-opacity:1;fill-rule:nonzero;stroke:none;stroke-width:13.1879282;stroke-linecap:butt;stroke-linejoin:miter;stroke-miterlimit:4;stroke-dasharray:none;stroke-dashoffset:0;stroke-opacity:1;marker:none;marker-start:none;marker-mid:none;marker-end:none;color-rendering:auto;image-rendering:auto;shape-rendering:auto;text-rendering:auto;enable-background:accumulate"
         xml:space="preserve"><tspan
           y="333.6853"
           x="715.31427"
           id="tspan8754"
           sodipodi:role="line">Breadth First</tspan></text>
      <text
         sodipodi:linespacing="98.000002%"
         id="text8756"
         y="328.48495"
         x="715.31427"
         style="color:#000000;font-style:normal;font-variant:normal;font-weight:bold;font-stretch:normal;font-size:5px;line-height:98.00000191%;font-family:'Noto Sans';-inkscape-font-specification:'Noto Sans Bold';text-indent:0;text-align:end;text-decoration:none;text-decoration-line:none;text-decoration-style:solid;text-decoration-color:#000000;letter-spacing:0px;word-spacing:0px;text-transform:none;direction:ltr;block-progression:tb;writing-mode:lr-tb;baseline-shift:baseline;text-anchor:end;white-space:normal;clip-rule:nonzero;display:inline;overflow:visible;visibility:visible;opacity:1;isolation:auto;mix-blend-mode:normal;color-interpolation:sRGB;color-interpolation-filters:linearRGB;solid-color:#000000;solid-opacity:1;fill:#000000;fill-opacity:1;fill-rule:nonzero;stroke:none;stroke-width:13.1879282;stroke-linecap:butt;stroke-linejoin:miter;stroke-miterlimit:4;stroke-dasharray:none;stroke-dashoffset:0;stroke-opacity:1;marker:none;marker-start:none;marker-mid:none;marker-end:none;color-rendering:auto;image-rendering:auto;shape-rendering:auto;text-rendering:auto;enable-background:accumulate"
         xml:space="preserve"><tspan
           y="328.48495"
           x="715.31427"
           id="tspan8758"
           sodipodi:role="line">Type-based</tspan></text>
      <text
         sodipodi:linespacing="98.000002%"
         id="text8760"
         y="323.28461"
         x="715.31427"
         style="color:#000000;font-style:normal;font-variant:normal;font-weight:bold;font-stretch:normal;font-size:5px;line-height:98.00000191%;font-family:'Noto Sans';-inkscape-font-specification:'Noto Sans Bold';text-indent:0;text-align:end;text-decoration:none;text-decoration-line:none;text-decoration-style:solid;text-decoration-color:#000000;letter-spacing:0px;word-spacing:0px;text-transform:none;direction:ltr;block-progression:tb;writing-mode:lr-tb;baseline-shift:baseline;text-anchor:end;white-space:normal;clip-rule:nonzero;display:inline;overflow:visible;visibility:visible;opacity:1;isolation:auto;mix-blend-mode:normal;color-interpolation:sRGB;color-interpolation-filters:linearRGB;solid-color:#000000;solid-opacity:1;fill:#000000;fill-opacity:1;fill-rule:nonzero;stroke:none;stroke-width:13.1879282;stroke-linecap:butt;stroke-linejoin:miter;stroke-miterlimit:4;stroke-dasharray:none;stroke-dashoffset:0;stroke-opacity:1;marker:none;marker-start:none;marker-mid:none;marker-end:none;color-rendering:auto;image-rendering:auto;shape-rendering:auto;text-rendering:auto;enable-background:accumulate"
         xml:space="preserve"><tspan
           y="323.28461"
           x="715.31427"
           id="tspan8762"
           sodipodi:role="line">IP</tspan></text>
    </g>
  </g>
</svg>
